<?xml version="1.0" encoding="UTF-8" standalone="no"?>
<!-- Generator: Adobe Illustrator 15.0.2, SVG Export Plug-In . SVG Version: 6.00 Build 0)  -->

<svg
   xmlns:dc="http://purl.org/dc/elements/1.1/"
   xmlns:cc="http://creativecommons.org/ns#"
   xmlns:rdf="http://www.w3.org/1999/02/22-rdf-syntax-ns#"
   xmlns:svg="http://www.w3.org/2000/svg"
   xmlns="http://www.w3.org/2000/svg"
   xmlns:xlink="http://www.w3.org/1999/xlink"
   xmlns:sodipodi="http://sodipodi.sourceforge.net/DTD/sodipodi-0.dtd"
   xmlns:inkscape="http://www.inkscape.org/namespaces/inkscape"
   version="1.1"
   id="Layer_1"
   x="0px"
   y="0px"
   width="64px"
   height="36px"
   viewBox="0 0 64 36"
   enable-background="new 0 0 64 36"
   xml:space="preserve"
   inkscape:version="0.91 r13725"
   sodipodi:docname="sb-logotype.svg"><metadata
     id="metadata83"><rdf:RDF><cc:Work
         rdf:about=""><dc:format>image/svg+xml</dc:format><dc:type
           rdf:resource="http://purl.org/dc/dcmitype/StillImage" /></cc:Work></rdf:RDF></metadata><defs
     id="defs81"><inkscape:perspective
       sodipodi:type="inkscape:persp3d"
       inkscape:vp_x="0 : 18 : 1"
       inkscape:vp_y="0 : 1000 : 0"
       inkscape:vp_z="64 : 18 : 1"
       inkscape:persp3d-origin="32 : 12 : 1"
       id="perspective4353" /><defs
       id="defs4294"><rect
         y="0"
         x="0"
         height="35.408001"
         width="64"
         id="rect4296" /></defs><clipPath
       id="clipPath4298"><rect
         y="0"
         x="0"
         height="35.408001"
         width="64"
         id="use4300" /></clipPath></defs><sodipodi:namedview
     pagecolor="#ffffff"
     bordercolor="#666666"
     borderopacity="1"
     objecttolerance="10"
     gridtolerance="10"
     guidetolerance="10"
     inkscape:pageopacity="0"
     inkscape:pageshadow="2"
     inkscape:window-width="1920"
     inkscape:window-height="1027"
     id="namedview79"
     showgrid="false"
     inkscape:zoom="11.313708"
     inkscape:cx="11.576341"
     inkscape:cy="13.564002"
     inkscape:window-x="-8"
     inkscape:window-y="-8"
     inkscape:window-maximized="1"
     inkscape:current-layer="Layer_1" /><g
     id="g5"><defs
       id="defs7"><rect
         y="0"
         x="0"
         height="35.408001"
         width="64"
         id="SVGID_1_" /></defs><clipPath
       id="SVGID_2_"><use
         height="100%"
         width="100%"
         y="0"
         x="0"
         style="overflow:visible"
         id="use11"
         overflow="visible"
         xlink:href="#SVGID_1_" /></clipPath><path
       style="fill:#fde700"
       inkscape:connector-curvature="0"
       id="path13"
       d="m 27.148,15.29 c -1.197,0 -2.006,-0.605 -2.125,-1.452 l -0.659,0 0.097,1.95 0.512,0 c 0.028,-0.215 0.101,-0.349 0.251,-0.349 0.154,0 0.71,0.5 2.028,0.5 1.164,0 2.48,-0.5 2.48,-1.847 0,-1.55 -1.42,-1.797 -2.584,-1.848 -0.505,-0.05 -1.62,-0.05 -1.62,-0.75 0,-0.449 0.506,-0.749 1.369,-0.749 1.062,0 1.923,0.549 2.073,1.346 l 0.61,0 -0.1,-1.837 -0.56,0 c 0,0.147 -0.038,0.292 -0.151,0.292 -0.304,0 -0.758,-0.45 -2.025,-0.45 -1.063,0 -2.38,0.548 -2.38,1.798 0,1.448 1.367,1.598 2.431,1.699 0.556,0.048 1.822,-0.051 1.822,0.748 10e-4,0.449 -0.454,0.949 -1.469,0.949"
       clip-path="url(#SVGID_2_)" /><path
       style="fill:#fde700"
       inkscape:connector-curvature="0"
       id="path15"
       d="m 46.938,15.139 -0.405,0 c -0.305,0 -0.457,-0.048 -0.457,-0.399 l 0,-3.546 c 0,-0.099 0.064,-0.098 0.102,0 l 1.671,4.593 0.964,0 1.721,-4.593 c 0.035,-0.103 0.101,-0.098 0.101,0 l 0,3.546 c 0,0.352 -0.151,0.399 -0.407,0.399 l -0.454,0 0,0.647 3.449,0 0,-0.647 c -0.48,-0.055 -1.119,-0.1 -1.119,-0.699 l 0,-2.848 c 0,-0.599 0.485,-0.587 1.116,-0.697 l 0,-0.652 -3.142,0 -1.419,3.848 -1.314,-3.848 -3.141,0 0,0.651 c 0.455,0.099 1.115,0.05 1.115,0.649 l 0,2.896 c 0,0.599 -0.606,0.651 -1.115,0.699 l 0,0.647 2.735,0 0,-0.646 z"
       clip-path="url(#SVGID_2_)" /><path
       style="fill:#fde700"
       inkscape:connector-curvature="0"
       id="path17"
       d="m 11.546,24.037 -0.977,0 c -0.162,0 -0.238,-0.045 -0.238,-0.174 l 0,-1.634 1.268,0 c 0.507,0 1.165,0.099 1.165,0.847 -10e-4,0.762 -0.566,0.961 -1.218,0.961 m -1.215,-3.941 c 0,-0.15 0,-0.25 0.205,-0.25 l 1.062,0 c 0.557,0 0.911,0.291 0.911,0.791 0,0.648 -0.507,0.898 -1.012,0.898 l -1.167,0 0,-1.439 z m 2.383,1.736 c 0.605,-0.1 1.264,-0.501 1.264,-1.199 0,-0.998 -0.809,-1.445 -1.772,-1.445 l -4.455,0 0,0.646 c 0.638,0.103 1.114,0.139 1.114,0.65 l 0,2.928 c 0,0.195 0.008,0.588 -1.112,0.665 l 0,0.649 4.047,0 c 1.116,0 2.482,-0.148 2.482,-1.548 10e-4,-0.899 -0.706,-1.297 -1.568,-1.346"
       clip-path="url(#SVGID_2_)" /><path
       style="fill:#fde700"
       inkscape:connector-curvature="0"
       id="path19"
       d="m 43.143,13.839 -0.657,0 c -0.151,0.652 -0.302,1.252 -1.265,1.252 l -1.063,0 c -0.254,0 -0.254,-0.052 -0.254,-0.151 l 0,-1.598 0.71,0 c 0.607,0 0.607,0.6 0.607,0.897 l 0.655,0 0,-2.495 -0.655,0 c 0,0.198 0,0.897 -0.559,0.897 l -0.759,0 0,-1.549 c 0,-0.148 0.05,-0.199 0.254,-0.199 l 1.063,0 c 0.963,0 1.113,0.499 1.215,1.199 l 0.658,0 -0.102,-1.848 -5.671,0 0,0.648 c 0.463,0.062 1.111,0.112 1.115,0.649 l 0,2.897 c 0,0.55 -0.406,0.599 -1.115,0.699 l 0,0.647 5.721,0 0.102,-1.945 z"
       clip-path="url(#SVGID_2_)" /><path
       style="fill:#fde700"
       inkscape:connector-curvature="0"
       id="path21"
       d="m 13.692,15.29 c -1.199,0 -2.008,-0.605 -2.125,-1.452 l -0.661,0 0.099,1.95 0.509,0 c 0.029,-0.215 0.103,-0.349 0.253,-0.349 0.153,0 0.709,0.5 2.027,0.5 1.163,0 2.478,-0.5 2.478,-1.847 0,-1.55 -1.417,-1.797 -2.581,-1.848 -0.507,-0.05 -1.622,-0.05 -1.622,-0.75 0,-0.449 0.508,-0.749 1.369,-0.749 1.064,0 1.924,0.549 2.075,1.346 l 0.607,0 -0.096,-1.837 -0.563,0 c 0,0.147 -0.035,0.292 -0.15,0.292 -0.303,0 -0.761,-0.45 -2.026,-0.45 -1.062,0 -2.38,0.548 -2.38,1.798 0,1.448 1.369,1.598 2.431,1.699 0.556,0.048 1.822,-0.051 1.822,0.748 0.001,0.449 -0.454,0.949 -1.466,0.949"
       clip-path="url(#SVGID_2_)" /><path
       style="fill:#fde700"
       inkscape:connector-curvature="0"
       id="path23"
       d="m 56.512,19.188 -5.873,0 -0.103,1.844 0.602,0 c 0.13,-0.648 0.299,-1.199 1.271,-1.199 l 0.43,0 0,3.547 c 0,0.551 -0.326,0.6 -1.086,0.701 l 0,0.653 3.646,0 0,-0.654 C 54.69,23.978 54.307,23.93 54.307,23.379 l 0,-3.547 0.42,0 c 0.643,0 1.116,0.164 1.283,1.199 l 0.603,0 -0.101,-1.843 z"
       clip-path="url(#SVGID_2_)" /><path
       style="fill:#fde700"
       inkscape:connector-curvature="0"
       id="path25"
       d="m 18.52,24.18 c -1.013,0 -1.824,-0.699 -1.824,-2.197 0,-1.499 0.811,-2.301 1.824,-2.301 1.062,0 1.874,0.852 1.874,2.301 -10e-4,1.558 -0.812,2.197 -1.874,2.197 m 0,-5.146 c -1.926,0 -3.394,1.048 -3.394,2.949 0,1.997 1.521,2.908 3.394,2.908 1.923,0 3.443,-0.911 3.443,-2.908 -0.001,-1.901 -1.52,-2.949 -3.443,-2.949"
       clip-path="url(#SVGID_2_)" /><path
       style="fill:#fde700"
       inkscape:connector-curvature="0"
       id="path27"
       d="m 40.045,22.68 0.355,0 c 0.354,0 0.656,0.101 0.656,0.551 0,0.447 -0.527,0.948 -1.313,0.948 -1.063,0 -2.026,-0.698 -2.026,-2.196 0,-1.451 0.91,-2.299 1.975,-2.299 0.962,0 1.72,0.4 1.872,1.348 l 0.66,0 0,-1.846 -0.66,0 c 0,0.215 -0.069,0.299 -0.152,0.299 -0.253,0 -0.858,-0.449 -2.022,-0.449 -1.621,0 -3.242,1.097 -3.242,2.947 0,1.947 1.723,2.907 3.242,2.907 1.416,0 1.859,-0.536 2.104,-0.536 0.164,0 0.227,0.189 0.227,0.373 l 0.604,0 0,-1.397 c 0,-0.55 0.406,-0.65 0.913,-0.65 l 0,-0.697 -3.19,0 0,0.697 z"
       clip-path="url(#SVGID_2_)" /><path
       style="fill:#fde700"
       inkscape:connector-curvature="0"
       id="path29"
       d="m 47.645,24.034 -1.065,0 c -0.209,0 -0.254,-0.06 -0.254,-0.185 l 0,-1.564 0.709,0 c 0.609,0 0.609,0.601 0.609,0.9 l 0.658,0 0,-2.498 -0.658,0 c 0,0.199 0,0.898 -0.558,0.898 l -0.761,0 0,-1.547 c 0,-0.15 0.051,-0.2 0.254,-0.2 l 1.064,0 c 0.959,0 1.113,0.497 1.214,1.198 l 0.659,0 -0.102,-1.848 -5.67,0 0,0.649 c 0.462,0.06 1.111,0.11 1.113,0.649 l 0,2.896 c 0,0.549 -0.406,0.599 -1.113,0.701 l 0,0.648 5.72,0 0.1,-1.949 -0.653,0 c -0.153,0.654 -0.307,1.252 -1.266,1.252"
       clip-path="url(#SVGID_2_)" /><path
       style="fill:#fde700"
       inkscape:connector-curvature="0"
       id="path31"
       d="m 36.541,10.245 -5.873,0 -0.101,1.847 0.602,0 c 0.129,-0.649 0.3,-1.198 1.272,-1.198 l 0.43,0 0,3.546 c 0,0.549 -0.329,0.601 -1.087,0.699 l 0,0.649 3.644,0 0,-0.649 C 34.721,15.04 34.34,14.989 34.34,14.44 l 0,-3.546 0.419,0 c 0.644,0 1.113,0.164 1.281,1.198 l 0.603,0 -0.102,-1.847 z"
       clip-path="url(#SVGID_2_)" /><path
       style="fill:#fde700"
       inkscape:connector-curvature="0"
       id="path33"
       d="m 21.048,14.44 0,-0.999 1.619,-2.099 c 0.253,-0.298 0.462,-0.398 1.013,-0.398 l 0,-0.699 -2.581,0 0,0.699 c 0.691,-0.002 0.82,0.113 0.509,0.539 0,0 -0.718,0.899 -0.812,1.008 -0.042,0.066 -0.09,0.08 -0.152,0 -0.349,-0.461 -0.81,-1.048 -0.81,-1.048 -0.395,-0.46 0.049,-0.499 0.506,-0.499 l 0,-0.699 -3.442,0 0,0.699 c 0.614,-0.001 0.826,0.101 1.013,0.35 l 1.671,2.147 0,0.999 c 0,0.58 -0.418,0.599 -1.076,0.698 l 0,0.65 3.632,0 0,-0.65 c -0.61,-0.112 -1.09,-0.112 -1.09,-0.698"
       clip-path="url(#SVGID_2_)" /><path
       style="fill:#fde700"
       inkscape:connector-curvature="0"
       id="path35"
       d="m 26.187,24.029 -0.82,0 c -0.202,0 -0.254,-0.05 -0.254,-0.15 l 0,-3.346 c 0,-0.4 0.254,-0.601 1.117,-0.699 l 0,-0.648 -3.711,0 0,0.658 c 0.618,0.055 1.112,0.174 1.112,0.64 l 0,2.897 c 0,0.548 -0.405,0.599 -1.112,0.697 l 0,0.648 5.442,0 0.1,-1.947 -0.606,0 c -0.203,0.75 -0.307,1.25 -1.268,1.25"
       clip-path="url(#SVGID_2_)" /><path
       style="fill:#fde700"
       inkscape:connector-curvature="0"
       id="path37"
       d="m 31.143,22.58 0.892,-2.232 c 0.051,-0.148 0.149,-0.148 0.202,0 l 0.884,2.232 -1.978,0 z m 3.832,0.949 -1.899,-4.342 -1.341,0 -1.924,4.342 c -0.153,0.316 -0.246,0.469 -1.113,0.551 l 0,0.646 2.631,0 0,-0.646 -0.456,0 c -0.253,0 -0.303,-0.102 -0.253,-0.252 l 0.238,-0.598 2.556,0 0.234,0.598 c 0.029,0.088 0.055,0.26 -0.225,0.26 l -0.486,0 0.002,0.639 3.097,0 0,-0.699 c -0.759,-10e-4 -0.962,-0.299 -1.061,-0.499"
       clip-path="url(#SVGID_2_)" /></g><g
     id="g39"
     inkscape:export-xdpi="130"
     inkscape:export-ydpi="130"><polygon
       style="fill:#0aa64c"
       id="polygon41"
       points="0,8.474 7.736,0 56.267,0 64,8.474 64,26.936 56.267,35.408 7.736,35.408 0,26.936 " /><path
       style="fill:#fde700"
       inkscape:connector-curvature="0"
       id="path43"
       d="m 60.606,25.648 -5.852,6.41 -45.505,0 -5.853,-6.41 0,-15.888 5.852,-6.41 45.508,0 5.852,6.41 0,15.888 z m -5.084,-24.001 -47.043,0 -6.808,7.458 0,17.197 6.809,7.459 47.043,0 6.808,-7.459 0,-17.197 -6.809,-7.458 z" /></g><g
     id="g4250"
     transform="translate(0,-40)"><defs
       id="defs4252"><rect
         id="rect4254"
         width="64"
         height="35.408001"
         x="0"
         y="0" /></defs><clipPath
       id="clipPath4256"><use
         xlink:href="#SVGID_1_"
         overflow="visible"
         id="use4258"
         style="overflow:visible"
         x="0"
         y="0"
         width="100%"
         height="100%" /></clipPath><path
       clip-path="url(#SVGID_2_)"
       d="m 27.148,15.29 c -1.197,0 -2.006,-0.605 -2.125,-1.452 l -0.659,0 0.097,1.95 0.512,0 c 0.028,-0.215 0.101,-0.349 0.251,-0.349 0.154,0 0.71,0.5 2.028,0.5 1.164,0 2.48,-0.5 2.48,-1.847 0,-1.55 -1.42,-1.797 -2.584,-1.848 -0.505,-0.05 -1.62,-0.05 -1.62,-0.75 0,-0.449 0.506,-0.749 1.369,-0.749 1.062,0 1.923,0.549 2.073,1.346 l 0.61,0 -0.1,-1.837 -0.56,0 c 0,0.147 -0.038,0.292 -0.151,0.292 -0.304,0 -0.758,-0.45 -2.025,-0.45 -1.063,0 -2.38,0.548 -2.38,1.798 0,1.448 1.367,1.598 2.431,1.699 0.556,0.048 1.822,-0.051 1.822,0.748 10e-4,0.449 -0.454,0.949 -1.469,0.949"
       id="path4260"
       inkscape:connector-curvature="0"
       style="fill:#fde700" /><path
       clip-path="url(#SVGID_2_)"
       d="m 46.938,15.139 -0.405,0 c -0.305,0 -0.457,-0.048 -0.457,-0.399 l 0,-3.546 c 0,-0.099 0.064,-0.098 0.102,0 l 1.671,4.593 0.964,0 1.721,-4.593 c 0.035,-0.103 0.101,-0.098 0.101,0 l 0,3.546 c 0,0.352 -0.151,0.399 -0.407,0.399 l -0.454,0 0,0.647 3.449,0 0,-0.647 c -0.48,-0.055 -1.119,-0.1 -1.119,-0.699 l 0,-2.848 c 0,-0.599 0.485,-0.587 1.116,-0.697 l 0,-0.652 -3.142,0 -1.419,3.848 -1.314,-3.848 -3.141,0 0,0.651 c 0.455,0.099 1.115,0.05 1.115,0.649 l 0,2.896 c 0,0.599 -0.606,0.651 -1.115,0.699 l 0,0.647 2.735,0 0,-0.646 z"
       id="path4262"
       inkscape:connector-curvature="0"
       style="fill:#fde700" /><path
       clip-path="url(#SVGID_2_)"
       d="m 11.546,24.037 -0.977,0 c -0.162,0 -0.238,-0.045 -0.238,-0.174 l 0,-1.634 1.268,0 c 0.507,0 1.165,0.099 1.165,0.847 -10e-4,0.762 -0.566,0.961 -1.218,0.961 m -1.215,-3.941 c 0,-0.15 0,-0.25 0.205,-0.25 l 1.062,0 c 0.557,0 0.911,0.291 0.911,0.791 0,0.648 -0.507,0.898 -1.012,0.898 l -1.167,0 0,-1.439 z m 2.383,1.736 c 0.605,-0.1 1.264,-0.501 1.264,-1.199 0,-0.998 -0.809,-1.445 -1.772,-1.445 l -4.455,0 0,0.646 c 0.638,0.103 1.114,0.139 1.114,0.65 l 0,2.928 c 0,0.195 0.008,0.588 -1.112,0.665 l 0,0.649 4.047,0 c 1.116,0 2.482,-0.148 2.482,-1.548 10e-4,-0.899 -0.706,-1.297 -1.568,-1.346"
       id="path4264"
       inkscape:connector-curvature="0"
       style="fill:#fde700" /><path
       clip-path="url(#SVGID_2_)"
       d="m 43.143,13.839 -0.657,0 c -0.151,0.652 -0.302,1.252 -1.265,1.252 l -1.063,0 c -0.254,0 -0.254,-0.052 -0.254,-0.151 l 0,-1.598 0.71,0 c 0.607,0 0.607,0.6 0.607,0.897 l 0.655,0 0,-2.495 -0.655,0 c 0,0.198 0,0.897 -0.559,0.897 l -0.759,0 0,-1.549 c 0,-0.148 0.05,-0.199 0.254,-0.199 l 1.063,0 c 0.963,0 1.113,0.499 1.215,1.199 l 0.658,0 -0.102,-1.848 -5.671,0 0,0.648 c 0.463,0.062 1.111,0.112 1.115,0.649 l 0,2.897 c 0,0.55 -0.406,0.599 -1.115,0.699 l 0,0.647 5.721,0 0.102,-1.945 z"
       id="path4266"
       inkscape:connector-curvature="0"
       style="fill:#fde700" /><path
       clip-path="url(#SVGID_2_)"
       d="m 13.692,15.29 c -1.199,0 -2.008,-0.605 -2.125,-1.452 l -0.661,0 0.099,1.95 0.509,0 c 0.029,-0.215 0.103,-0.349 0.253,-0.349 0.153,0 0.709,0.5 2.027,0.5 1.163,0 2.478,-0.5 2.478,-1.847 0,-1.55 -1.417,-1.797 -2.581,-1.848 -0.507,-0.05 -1.622,-0.05 -1.622,-0.75 0,-0.449 0.508,-0.749 1.369,-0.749 1.064,0 1.924,0.549 2.075,1.346 l 0.607,0 -0.096,-1.837 -0.563,0 c 0,0.147 -0.035,0.292 -0.15,0.292 -0.303,0 -0.761,-0.45 -2.026,-0.45 -1.062,0 -2.38,0.548 -2.38,1.798 0,1.448 1.369,1.598 2.431,1.699 0.556,0.048 1.822,-0.051 1.822,0.748 0.001,0.449 -0.454,0.949 -1.466,0.949"
       id="path4268"
       inkscape:connector-curvature="0"
       style="fill:#fde700" /><path
       clip-path="url(#SVGID_2_)"
       d="m 56.512,19.188 -5.873,0 -0.103,1.844 0.602,0 c 0.13,-0.648 0.299,-1.199 1.271,-1.199 l 0.43,0 0,3.547 c 0,0.551 -0.326,0.6 -1.086,0.701 l 0,0.653 3.646,0 0,-0.654 C 54.69,23.978 54.307,23.93 54.307,23.379 l 0,-3.547 0.42,0 c 0.643,0 1.116,0.164 1.283,1.199 l 0.603,0 -0.101,-1.843 z"
       id="path4270"
       inkscape:connector-curvature="0"
       style="fill:#fde700" /><path
       clip-path="url(#SVGID_2_)"
       d="m 18.52,24.18 c -1.013,0 -1.824,-0.699 -1.824,-2.197 0,-1.499 0.811,-2.301 1.824,-2.301 1.062,0 1.874,0.852 1.874,2.301 -10e-4,1.558 -0.812,2.197 -1.874,2.197 m 0,-5.146 c -1.926,0 -3.394,1.048 -3.394,2.949 0,1.997 1.521,2.908 3.394,2.908 1.923,0 3.443,-0.911 3.443,-2.908 -0.001,-1.901 -1.52,-2.949 -3.443,-2.949"
       id="path4272"
       inkscape:connector-curvature="0"
       style="fill:#fde700" /><path
       clip-path="url(#SVGID_2_)"
       d="m 40.045,22.68 0.355,0 c 0.354,0 0.656,0.101 0.656,0.551 0,0.447 -0.527,0.948 -1.313,0.948 -1.063,0 -2.026,-0.698 -2.026,-2.196 0,-1.451 0.91,-2.299 1.975,-2.299 0.962,0 1.72,0.4 1.872,1.348 l 0.66,0 0,-1.846 -0.66,0 c 0,0.215 -0.069,0.299 -0.152,0.299 -0.253,0 -0.858,-0.449 -2.022,-0.449 -1.621,0 -3.242,1.097 -3.242,2.947 0,1.947 1.723,2.907 3.242,2.907 1.416,0 1.859,-0.536 2.104,-0.536 0.164,0 0.227,0.189 0.227,0.373 l 0.604,0 0,-1.397 c 0,-0.55 0.406,-0.65 0.913,-0.65 l 0,-0.697 -3.19,0 0,0.697 z"
       id="path4274"
       inkscape:connector-curvature="0"
       style="fill:#fde700" /><path
       clip-path="url(#SVGID_2_)"
       d="m 47.645,24.034 -1.065,0 c -0.209,0 -0.254,-0.06 -0.254,-0.185 l 0,-1.564 0.709,0 c 0.609,0 0.609,0.601 0.609,0.9 l 0.658,0 0,-2.498 -0.658,0 c 0,0.199 0,0.898 -0.558,0.898 l -0.761,0 0,-1.547 c 0,-0.15 0.051,-0.2 0.254,-0.2 l 1.064,0 c 0.959,0 1.113,0.497 1.214,1.198 l 0.659,0 -0.102,-1.848 -5.67,0 0,0.649 c 0.462,0.06 1.111,0.11 1.113,0.649 l 0,2.896 c 0,0.549 -0.406,0.599 -1.113,0.701 l 0,0.648 5.72,0 0.1,-1.949 -0.653,0 c -0.153,0.654 -0.307,1.252 -1.266,1.252"
       id="path4276"
       inkscape:connector-curvature="0"
       style="fill:#fde700" /><path
       clip-path="url(#SVGID_2_)"
       d="m 36.541,10.245 -5.873,0 -0.101,1.847 0.602,0 c 0.129,-0.649 0.3,-1.198 1.272,-1.198 l 0.43,0 0,3.546 c 0,0.549 -0.329,0.601 -1.087,0.699 l 0,0.649 3.644,0 0,-0.649 C 34.721,15.04 34.34,14.989 34.34,14.44 l 0,-3.546 0.419,0 c 0.644,0 1.113,0.164 1.281,1.198 l 0.603,0 -0.102,-1.847 z"
       id="path4278"
       inkscape:connector-curvature="0"
       style="fill:#fde700" /><path
       clip-path="url(#SVGID_2_)"
       d="m 21.048,14.44 0,-0.999 1.619,-2.099 c 0.253,-0.298 0.462,-0.398 1.013,-0.398 l 0,-0.699 -2.581,0 0,0.699 c 0.691,-0.002 0.82,0.113 0.509,0.539 0,0 -0.718,0.899 -0.812,1.008 -0.042,0.066 -0.09,0.08 -0.152,0 -0.349,-0.461 -0.81,-1.048 -0.81,-1.048 -0.395,-0.46 0.049,-0.499 0.506,-0.499 l 0,-0.699 -3.442,0 0,0.699 c 0.614,-0.001 0.826,0.101 1.013,0.35 l 1.671,2.147 0,0.999 c 0,0.58 -0.418,0.599 -1.076,0.698 l 0,0.65 3.632,0 0,-0.65 c -0.61,-0.112 -1.09,-0.112 -1.09,-0.698"
       id="path4280"
       inkscape:connector-curvature="0"
       style="fill:#fde700" /><path
       clip-path="url(#SVGID_2_)"
       d="m 26.187,24.029 -0.82,0 c -0.202,0 -0.254,-0.05 -0.254,-0.15 l 0,-3.346 c 0,-0.4 0.254,-0.601 1.117,-0.699 l 0,-0.648 -3.711,0 0,0.658 c 0.618,0.055 1.112,0.174 1.112,0.64 l 0,2.897 c 0,0.548 -0.405,0.599 -1.112,0.697 l 0,0.648 5.442,0 0.1,-1.947 -0.606,0 c -0.203,0.75 -0.307,1.25 -1.268,1.25"
       id="path4282"
       inkscape:connector-curvature="0"
       style="fill:#fde700" /><path
       clip-path="url(#SVGID_2_)"
       d="m 31.143,22.58 0.892,-2.232 c 0.051,-0.148 0.149,-0.148 0.202,0 l 0.884,2.232 -1.978,0 z m 3.832,0.949 -1.899,-4.342 -1.341,0 -1.924,4.342 c -0.153,0.316 -0.246,0.469 -1.113,0.551 l 0,0.646 2.631,0 0,-0.646 -0.456,0 c -0.253,0 -0.303,-0.102 -0.253,-0.252 l 0.238,-0.598 2.556,0 0.234,0.598 c 0.029,0.088 0.055,0.26 -0.225,0.26 l -0.486,0 0.002,0.639 3.097,0 0,-0.699 c -0.759,-10e-4 -0.962,-0.299 -1.061,-0.499"
       id="path4284"
       inkscape:connector-curvature="0"
       style="fill:#fde700" /></g><g
     id="g4286"
     transform="translate(0,-40)"><polygon
       points="56.267,0 64,8.474 64,26.936 56.267,35.408 7.736,35.408 0,26.936 0,8.474 7.736,0 "
       id="polygon4288"
       style="fill:#0aa64c" /><path
       d="m 60.606,25.648 -5.852,6.41 -45.505,0 -5.853,-6.41 0,-15.888 5.852,-6.41 45.508,0 5.852,6.41 0,15.888 z m -5.084,-24.001 -47.043,0 -6.808,7.458 0,17.197 6.809,7.459 47.043,0 6.808,-7.459 0,-17.197 -6.809,-7.458 z"
       id="path4290"
       inkscape:connector-curvature="0"
       style="fill:#fde700" /></g><path
     style="fill:#fde700"
     inkscape:connector-curvature="0"
     id="path4302"
     d="m 27.148,-24.71 c -1.197,0 -2.006,-0.605 -2.125,-1.452 l -0.659,0 0.097,1.95 0.512,0 c 0.028,-0.215 0.101,-0.349 0.251,-0.349 0.154,0 0.71,0.5 2.028,0.5 1.164,0 2.48,-0.5 2.48,-1.847 0,-1.55 -1.42,-1.797 -2.584,-1.848 -0.505,-0.05 -1.62,-0.05 -1.62,-0.75 0,-0.449 0.506,-0.749 1.369,-0.749 1.062,0 1.923,0.549 2.073,1.346 l 0.61,0 -0.1,-1.837 -0.56,0 c 0,0.147 -0.038,0.292 -0.151,0.292 -0.304,0 -0.758,-0.45 -2.025,-0.45 -1.063,0 -2.38,0.548 -2.38,1.798 0,1.448 1.367,1.598 2.431,1.699 0.556,0.048 1.822,-0.051 1.822,0.748 10e-4,0.449 -0.454,0.949 -1.469,0.949"
     clip-path="url(#SVGID_4_)" /><path
     style="fill:#fde700"
     inkscape:connector-curvature="0"
     id="path4304"
     d="m 46.938,-24.861 -0.405,0 c -0.305,0 -0.457,-0.048 -0.457,-0.399 l 0,-3.546 c 0,-0.099 0.064,-0.098 0.102,0 l 1.671,4.593 0.964,0 1.721,-4.593 c 0.035,-0.103 0.101,-0.098 0.101,0 l 0,3.546 c 0,0.352 -0.151,0.399 -0.407,0.399 l -0.454,0 0,0.647 3.449,0 0,-0.647 c -0.48,-0.055 -1.119,-0.1 -1.119,-0.699 l 0,-2.848 c 0,-0.599 0.485,-0.587 1.116,-0.697 l 0,-0.652 -3.142,0 -1.419,3.848 -1.314,-3.848 -3.141,0 0,0.651 c 0.455,0.099 1.115,0.05 1.115,0.649 l 0,2.896 c 0,0.599 -0.606,0.651 -1.115,0.699 l 0,0.647 2.735,0 0,-0.646 z"
     clip-path="url(#SVGID_4_)" /><path
     style="fill:#fde700"
     inkscape:connector-curvature="0"
     id="path4306"
     d="m 11.546,-15.963 -0.977,0 c -0.162,0 -0.238,-0.045 -0.238,-0.174 l 0,-1.634 1.268,0 c 0.507,0 1.165,0.099 1.165,0.847 -10e-4,0.762 -0.566,0.961 -1.218,0.961 m -1.215,-3.941 c 0,-0.15 0,-0.25 0.205,-0.25 l 1.062,0 c 0.557,0 0.911,0.291 0.911,0.791 0,0.648 -0.507,0.898 -1.012,0.898 l -1.167,0 0,-1.439 z m 2.383,1.736 c 0.605,-0.1 1.264,-0.501 1.264,-1.199 0,-0.998 -0.809,-1.445 -1.772,-1.445 l -4.455,0 0,0.646 c 0.638,0.103 1.114,0.139 1.114,0.65 l 0,2.928 c 0,0.195 0.008,0.588 -1.112,0.665 l 0,0.649 4.047,0 c 1.116,0 2.482,-0.148 2.482,-1.548 10e-4,-0.899 -0.706,-1.297 -1.568,-1.346"
     clip-path="url(#SVGID_4_)" /><path
     style="fill:#fde700"
     inkscape:connector-curvature="0"
     id="path4308"
     d="m 43.143,-26.161 -0.657,0 c -0.151,0.652 -0.302,1.252 -1.265,1.252 l -1.063,0 c -0.254,0 -0.254,-0.052 -0.254,-0.151 l 0,-1.598 0.71,0 c 0.607,0 0.607,0.6 0.607,0.897 l 0.655,0 0,-2.495 -0.655,0 c 0,0.198 0,0.897 -0.559,0.897 l -0.759,0 0,-1.549 c 0,-0.148 0.05,-0.199 0.254,-0.199 l 1.063,0 c 0.963,0 1.113,0.499 1.215,1.199 l 0.658,0 -0.102,-1.848 -5.671,0 0,0.648 c 0.463,0.062 1.111,0.112 1.115,0.649 l 0,2.897 c 0,0.55 -0.406,0.599 -1.115,0.699 l 0,0.647 5.721,0 0.102,-1.945 z"
     clip-path="url(#SVGID_4_)" /><path
     style="fill:#fde700"
     inkscape:connector-curvature="0"
     id="path4310"
     d="m 13.692,-24.71 c -1.199,0 -2.008,-0.605 -2.125,-1.452 l -0.661,0 0.099,1.95 0.509,0 c 0.029,-0.215 0.103,-0.349 0.253,-0.349 0.153,0 0.709,0.5 2.027,0.5 1.163,0 2.478,-0.5 2.478,-1.847 0,-1.55 -1.417,-1.797 -2.581,-1.848 -0.507,-0.05 -1.622,-0.05 -1.622,-0.75 0,-0.449 0.508,-0.749 1.369,-0.749 1.064,0 1.924,0.549 2.075,1.346 l 0.607,0 -0.096,-1.837 -0.563,0 c 0,0.147 -0.035,0.292 -0.15,0.292 -0.303,0 -0.761,-0.45 -2.026,-0.45 -1.062,0 -2.38,0.548 -2.38,1.798 0,1.448 1.369,1.598 2.431,1.699 0.556,0.048 1.822,-0.051 1.822,0.748 0.001,0.449 -0.454,0.949 -1.466,0.949"
     clip-path="url(#SVGID_4_)" /><path
     style="fill:#fde700"
     inkscape:connector-curvature="0"
     id="path4312"
     d="m 56.512,-20.812 -5.873,0 -0.103,1.844 0.602,0 c 0.13,-0.648 0.299,-1.199 1.271,-1.199 l 0.43,0 0,3.547 c 0,0.551 -0.326,0.6 -1.086,0.701 l 0,0.653 3.646,0 0,-0.654 c -0.709,-0.102 -1.092,-0.15 -1.092,-0.701 l 0,-3.547 0.42,0 c 0.643,0 1.116,0.164 1.283,1.199 l 0.603,0 -0.101,-1.843 z"
     clip-path="url(#SVGID_4_)" /><path
     style="fill:#fde700"
     inkscape:connector-curvature="0"
     id="path4314"
     d="m 18.52,-15.82 c -1.013,0 -1.824,-0.699 -1.824,-2.197 0,-1.499 0.811,-2.301 1.824,-2.301 1.062,0 1.874,0.852 1.874,2.301 -10e-4,1.558 -0.812,2.197 -1.874,2.197 m 0,-5.146 c -1.926,0 -3.394,1.048 -3.394,2.949 0,1.997 1.521,2.908 3.394,2.908 1.923,0 3.443,-0.911 3.443,-2.908 -0.001,-1.901 -1.52,-2.949 -3.443,-2.949"
     clip-path="url(#SVGID_4_)" /><path
     style="fill:#fde700"
     inkscape:connector-curvature="0"
     id="path4316"
     d="m 40.045,-17.32 0.355,0 c 0.354,0 0.656,0.101 0.656,0.551 0,0.447 -0.527,0.948 -1.313,0.948 -1.063,0 -2.026,-0.698 -2.026,-2.196 0,-1.451 0.91,-2.299 1.975,-2.299 0.962,0 1.72,0.4 1.872,1.348 l 0.66,0 0,-1.846 -0.66,0 c 0,0.215 -0.069,0.299 -0.152,0.299 -0.253,0 -0.858,-0.449 -2.022,-0.449 -1.621,0 -3.242,1.097 -3.242,2.947 0,1.947 1.723,2.907 3.242,2.907 1.416,0 1.859,-0.536 2.104,-0.536 0.164,0 0.227,0.189 0.227,0.373 l 0.604,0 0,-1.397 c 0,-0.55 0.406,-0.65 0.913,-0.65 l 0,-0.697 -3.19,0 0,0.697 z"
     clip-path="url(#SVGID_4_)" /><path
     style="fill:#fde700"
     inkscape:connector-curvature="0"
     id="path4318"
     d="m 47.645,-15.966 -1.065,0 c -0.209,0 -0.254,-0.06 -0.254,-0.185 l 0,-1.564 0.709,0 c 0.609,0 0.609,0.601 0.609,0.9 l 0.658,0 0,-2.498 -0.658,0 c 0,0.199 0,0.898 -0.558,0.898 l -0.761,0 0,-1.547 c 0,-0.15 0.051,-0.2 0.254,-0.2 l 1.064,0 c 0.959,0 1.113,0.497 1.214,1.198 l 0.659,0 -0.102,-1.848 -5.67,0 0,0.649 c 0.462,0.06 1.111,0.11 1.113,0.649 l 0,2.896 c 0,0.549 -0.406,0.599 -1.113,0.701 l 0,0.648 5.72,0 0.1,-1.949 -0.653,0 c -0.153,0.654 -0.307,1.252 -1.266,1.252"
     clip-path="url(#SVGID_4_)" /><path
     style="fill:#fde700"
     inkscape:connector-curvature="0"
     id="path4320"
     d="m 36.541,-29.755 -5.873,0 -0.101,1.847 0.602,0 c 0.129,-0.649 0.3,-1.198 1.272,-1.198 l 0.43,0 0,3.546 c 0,0.549 -0.329,0.601 -1.087,0.699 l 0,0.649 3.644,0 0,-0.649 c -0.707,-0.099 -1.088,-0.15 -1.088,-0.699 l 0,-3.546 0.419,0 c 0.644,0 1.113,0.164 1.281,1.198 l 0.603,0 -0.102,-1.847 z"
     clip-path="url(#SVGID_4_)" /><path
     style="fill:#fde700"
     inkscape:connector-curvature="0"
     id="path4322"
     d="m 21.048,-25.56 0,-0.999 1.619,-2.099 c 0.253,-0.298 0.462,-0.398 1.013,-0.398 l 0,-0.699 -2.581,0 0,0.699 c 0.691,-0.002 0.82,0.113 0.509,0.539 0,0 -0.718,0.899 -0.812,1.008 -0.042,0.066 -0.09,0.08 -0.152,0 -0.349,-0.461 -0.81,-1.048 -0.81,-1.048 -0.395,-0.46 0.049,-0.499 0.506,-0.499 l 0,-0.699 -3.442,0 0,0.699 c 0.614,-10e-4 0.826,0.101 1.013,0.35 l 1.671,2.147 0,0.999 c 0,0.58 -0.418,0.599 -1.076,0.698 l 0,0.65 3.632,0 0,-0.65 c -0.61,-0.112 -1.09,-0.112 -1.09,-0.698"
     clip-path="url(#SVGID_4_)" /><path
     style="fill:#fde700"
     inkscape:connector-curvature="0"
     id="path4324"
     d="m 26.187,-15.971 -0.82,0 c -0.202,0 -0.254,-0.05 -0.254,-0.15 l 0,-3.346 c 0,-0.4 0.254,-0.601 1.117,-0.699 l 0,-0.648 -3.711,0 0,0.658 c 0.618,0.055 1.112,0.174 1.112,0.64 l 0,2.897 c 0,0.548 -0.405,0.599 -1.112,0.697 l 0,0.648 5.442,0 0.1,-1.947 -0.606,0 c -0.203,0.75 -0.307,1.25 -1.268,1.25"
     clip-path="url(#SVGID_4_)" /><path
     style="fill:#fde700"
     inkscape:connector-curvature="0"
     id="path4326"
     d="m 31.143,-17.42 0.892,-2.232 c 0.051,-0.148 0.149,-0.148 0.202,0 l 0.884,2.232 -1.978,0 z m 3.832,0.949 -1.899,-4.342 -1.341,0 -1.924,4.342 c -0.153,0.316 -0.246,0.469 -1.113,0.551 l 0,0.646 2.631,0 0,-0.646 -0.456,0 c -0.253,0 -0.303,-0.102 -0.253,-0.252 l 0.238,-0.598 2.556,0 0.234,0.598 c 0.029,0.088 0.055,0.26 -0.225,0.26 l -0.486,0 0.002,0.639 3.097,0 0,-0.699 c -0.759,-0.001 -0.962,-0.299 -1.061,-0.499"
     clip-path="url(#SVGID_4_)" /><path
     clip-path="url(#SVGID_4_)"
     d="m 12.999104,13.792 0.892,-2.232 c 0.051,-0.148 0.149,-0.148 0.202,0 l 0.884,2.232 z m 3.832,0.949 -1.899,-4.342 -1.341,0 -1.924,4.342 c -0.153,0.316 -0.246,0.469 -1.113,0.551 l 0,0.646 2.631,0 0,-0.646 -0.456,0 c -0.253,0 -0.303,-0.102 -0.253,-0.252 l 0.238,-0.598 2.556,0 0.234,0.598 c 0.029,0.088 0.055,0.26 -0.225,0.26 l -0.486,0 0.002,0.639 3.097,0 0,-0.699 c -0.759,-10e-4 -0.962,-0.299 -1.061,-0.499 m -2.005988,-4.651673 -0.363121,-0.94336 -0.426609,0 -0.350207,0.94336 z"
     id="path4351"
     inkscape:connector-curvature="0"
     style="fill:#fde700"
     sodipodi:nodetypes="cccccccccccccsccccscccccccccc" /><path
     id="path4357"
     style="fill:#fde700"
     d="m 22.895735,15.284 0,0.655 2.495,0 0,-0.655 c -0.198,0 -0.897479,-0.024 -0.897479,-0.583 0,-1.216881 -0.813819,-1.714212 -1.03131,-1.656 0.605,-0.1 1.264,-0.501 1.264,-1.199 0,-0.998 -0.809,-1.445 -1.772,-1.445 l -4.455,0 0,0.646 c 0.638,0.103 1.114,0.139 1.114,0.65 l 0,2.928 c 0,0.195 0.008,0.588 -1.112,0.665 l 0,0.649 3.635898,0 0,-0.689 c -0.584407,-0.0077 -1.057898,-0.08359 -1.057898,-0.62 l 0,-1.188 1.268,0 c 0.529884,0 1.44531,0.387823 1.44531,1.259 0,0.607 -0.599521,0.583 -0.896521,0.583 z m -1.816789,-3.975 c 0,-0.15 0,-0.25 0.205,-0.25 l 1.062,0 c 0.557,0 0.911,0.291 0.911,0.791 0,0.648 -0.507,0.898 -1.012,0.898 l -1.167,0 0,-1.439 z"
     inkscape:connector-curvature="0"
     sodipodi:nodetypes="ccccccssccssccccccscccssssccc" /><path
     clip-path="url(#SVGID_4_)"
     d="m 31.820577,13.994 -0.657,0 c -0.151,0.652 -0.302,1.252 -1.265,1.252 l -1.063,0 c -0.254,0 -0.254,-0.052 -0.254,-0.151 l 0,-1.598 0.71,0 c 0.607,0 0.607,0.6 0.607,0.897 l 0.655,0 0,-2.495 -0.655,0 c 0,0.198 0,0.897 -0.559,0.897 l -0.759,0 0,-1.549 c 0,-0.148 0.05,-0.199 0.254,-0.199 l 1.063,0 c 0.963,0 1.113,0.499 1.215,1.199 l 0.658,0 -0.102,-1.848 -5.671,0 0,0.648 c 0.463,0.062 1.111,0.112 1.115,0.649 l 0,2.897 c 0,0.55 -0.406,0.599 -1.115,0.699 l 0,0.647 5.721,0 0.102,-1.945 z"
     id="path4368"
     inkscape:connector-curvature="0"
     style="fill:#fde700" /><path
     clip-path="url(#SVGID_4_)"
     d="m 38.40142,10.396 -5.873,0 -0.101,1.847 0.602,0 c 0.129,-0.649 0.3,-1.198 1.272,-1.198 l 0.43,0 0,3.546 c 0,0.549 -0.329,0.601 -1.087,0.699 l 0,0.649 3.644,0 0,-0.649 c -0.707,-0.099 -1.088,-0.15 -1.088,-0.699 l 0,-3.546 0.419,0 c 0.644,0 1.113,0.164 1.281,1.198 l 0.603,0 -0.102,-1.847 z"
     id="path4370"
     inkscape:connector-curvature="0"
     style="fill:#fde700" /><path
     clip-path="url(#SVGID_4_)"
     d="m 42.504263,15.228 c -1.013,0 -1.824,-0.699 -1.824,-2.197 l 0,-2.632774 -1.57,0 0,2.632774 c 0,1.997 1.521,2.908 3.394,2.908 1.923,0 3.443,-0.911 3.443,-2.908 l 0,-2.632774 -1.569,0 0,2.632774 c -10e-4,1.558 -0.812,2.197 -1.874,2.197"
     id="path4372"
     inkscape:connector-curvature="0"
     style="fill:#fde700"
     sodipodi:nodetypes="cccccsccccc" /><use
     x="0"
     y="0"
     xlink:href="#path4357"
     id="use4378"
     transform="translate(28.055161,0)"
     width="100%"
     height="100%" /><path
     clip-path="url(#SVGID_4_)"
     d="m 11.208994,24.077 c -1.199,0 -2.008,-0.605 -2.125,-1.452 l -0.661,0 0.099,1.95 0.509,0 c 0.029,-0.215 0.103,-0.349 0.253,-0.349 0.153,0 0.709,0.5 2.027,0.5 1.163,0 2.478,-0.5 2.478,-1.847 0,-1.55 -1.417,-1.797 -2.581,-1.848 -0.507,-0.05 -1.622,-0.05 -1.622,-0.75 0,-0.449 0.508,-0.749 1.369,-0.749 1.064,0 1.924,0.549 2.075,1.346 l 0.607,0 -0.096,-1.837 -0.563,0 c 0,0.147 -0.035,0.292 -0.15,0.292 -0.303,0 -0.761,-0.45 -2.026,-0.45 -1.062,0 -2.38,0.548 -2.38,1.798 0,1.448 1.369,1.598 2.431,1.699 0.556,0.048 1.822,-0.051 1.822,0.748 10e-4,0.449 -0.454,0.949 -1.466,0.949"
     id="path4380"
     inkscape:connector-curvature="0"
     style="fill:#fde700" /><path
     clip-path="url(#SVGID_4_)"
     d="m 18.769399,24.037 c -0.294993,0.02311 -1.092404,-0.05952 -1.092404,-0.625 l 0,-1.183 2.383,0 c 0.605,-0.1 1.264,-0.898 1.264,-1.596 0,-0.998 -0.809,-1.445 -1.772,-1.445 l -4.455,0 0,0.646 c 0.638,0.103 1.114,0.139 1.114,0.65 l 0,2.928 c 0,0.195 0.008,0.588 -1.112,0.665 l 0,0.649 3.670404,0 m -1.092404,-4.63 c 0,-0.15 0,-0.25 0.205,-0.25 l 1.062,0 c 0.557,0 0.911,0.291 0.911,0.791 0,0.648 -0.507,0.898 -1.012,0.898 l -1.167,0 0,-1.439 z"
     id="path4382"
     inkscape:connector-curvature="0"
     style="fill:#fde700"
     sodipodi:nodetypes="csccssccssccccssssccc" /><path
     style="fill:#fde700"
     inkscape:connector-curvature="0"
     id="path4384"
     d="m 28.454996,22.781 -0.657,0 c -0.151,0.652 -0.302,1.252 -1.265,1.252 l -1.063,0 c -0.254,0 -0.254,-0.052 -0.254,-0.151 l 0,-1.598 0.71,0 c 0.607,0 0.607,0.6 0.607,0.897 l 0.655,0 0,-2.495 -0.655,0 c 0,0.198 0,0.897 -0.559,0.897 l -0.759,0 0,-1.549 c 0,-0.148 0.05,-0.199 0.254,-0.199 l 1.063,0 c 0.963,0 1.113,0.499 1.215,1.199 l 0.658,0 -0.102,-1.848 -5.671,0 0,0.648 c 0.463,0.062 1.111,0.112 1.115,0.649 l 0,2.897 c 0,0.55 -0.406,0.599 -1.115,0.699 l 0,0.647 5.721,0 0.102,-1.945 z"
     clip-path="url(#SVGID_4_)" /><path
     clip-path="url(#SVGID_4_)"
     d="m 37.524999,20.531 c 0,-0.549 -0.329,-0.601 -1.087,-0.699 l 0,-0.649 3.644,0 0,0.649 c -0.707,0.099 -1.088,0.15 -1.088,0.699 l 0,2.847 c 0,0.549 0.381,0.6 1.088,0.699 l 0,0.649 -3.644,0 0,-0.649 c 0.758,-0.098 1.087,-0.15 1.087,-0.699 z"
     id="path4390"
     inkscape:connector-curvature="0"
     style="fill:#fde700"
     sodipodi:nodetypes="ccccccccccccc" /><path
     clip-path="url(#SVGID_4_)"
     d="m 43.835003,22.579 0.892,-2.232 c 0.051,-0.148 0.149,-0.148 0.202,0 l 0.884,2.232 -1.978,0 z m 3.832,0.949 -1.899,-4.342 -1.341,0 -1.924,4.342 c -0.153,0.316 -0.246,0.469 -1.113,0.551 l 0,0.646 2.631,0 0,-0.646 -0.456,0 c -0.253,0 -0.303,-0.102 -0.253,-0.252 l 0.238,-0.598 2.556,0 0.234,0.598 c 0.029,0.088 0.055,0.26 -0.225,0.26 l -0.486,0 0.002,0.639 3.097,0 0,-0.699 c -0.759,-0.001 -0.962,-0.299 -1.061,-0.499"
     id="path4392"
     inkscape:connector-curvature="0"
     style="fill:#fde700" /><path
     clip-path="url(#SVGID_4_)"
     d="m 53.704006,24.029 -0.82,0 c -0.202,0 -0.254,-0.05 -0.254,-0.15 l 0,-3.346 c 0,-0.4 0.254,-0.601 1.117,-0.699 l 0,-0.648 -3.711,0 0,0.658 c 0.618,0.055 1.112,0.174 1.112,0.64 l 0,2.897 c 0,0.548 -0.405,0.599 -1.112,0.697 l 0,0.648 5.442,0 0.1,-1.947 -0.606,0 c -0.203,0.75 -0.307,1.25 -1.268,1.25"
     id="path4394"
     inkscape:connector-curvature="0"
     style="fill:#fde700" /><path
     style="fill:#fde700"
     inkscape:connector-curvature="0"
     id="path4205"
     d="m 32.549996,24.077 c -1.199,0 -2.008,-0.605 -2.125,-1.452 l -0.661,0 0.099,1.95 0.509,0 c 0.029,-0.215 0.103,-0.349 0.253,-0.349 0.153,0 0.709,0.5 2.027,0.5 1.163,0 2.478,-0.5 2.478,-1.847 0,-1.55 -1.417,-1.797 -2.581,-1.848 -0.507,-0.05 -1.622,-0.05 -1.622,-0.75 0,-0.449 0.508,-0.749 1.369,-0.749 1.064,0 1.924,0.549 2.075,1.346 l 0.607,0 -0.096,-1.837 -0.563,0 c 0,0.147 -0.035,0.292 -0.15,0.292 -0.303,0 -0.761,-0.45 -2.026,-0.45 -1.062,0 -2.38,0.548 -2.38,1.798 0,1.448 1.369,1.598 2.431,1.699 0.556,0.048 1.822,-0.051 1.822,0.748 10e-4,0.449 -0.454,0.949 -1.466,0.949"
     clip-path="url(#SVGID_4_)" /></svg>